<svg xmlns="http://www.w3.org/2000/svg" width="1780.91" height="1034.542" viewBox="0 0 1780.91 1034.542"><g transform="translate(-99.795 -6.458)" opacity="0.32"><g transform="translate(464.811 1004.31) rotate(-155)"><path d="M71.806,26.927A14.96,14.96,0,1,0,52.639,41.289c-.112,3.011-.785,5.329-2.057,6.9-2.88,3.59-9.219,4.189-15.932,4.806-5.273.486-10.734,1.01-15.2,3.16V29.227a14.96,14.96,0,1,0-8.976,0V66.5a14.993,14.993,0,1,0,9.873.337,6.581,6.581,0,0,1,2.786-2.506c3.029-1.533,7.555-1.945,12.36-2.394,7.891-.729,16.83-1.571,22.1-8.116,2.618-3.254,3.946-7.442,4.039-12.7A15.021,15.021,0,0,0,71.806,26.927ZM14.96,11.968a2.992,2.992,0,1,1-2.992,2.992A3,3,0,0,1,14.96,11.968Zm0,71.806a2.992,2.992,0,1,1,2.992-2.992A3,3,0,0,1,14.96,83.774ZM56.847,23.935a2.992,2.992,0,1,1-2.992,2.992A3,3,0,0,1,56.847,23.935Z" transform="translate(0 0)" fill="#1d2026"/><ellipse cx="5.419" cy="5.058" rx="5.419" ry="5.058" transform="translate(7.948 10.839)" fill="#1d2026"/><ellipse cx="5.419" cy="5.419" rx="5.419" ry="5.419" transform="translate(50.581 20.955)" fill="#1d2026"/><ellipse cx="5.419" cy="5.058" rx="5.419" ry="5.058" transform="translate(7.948 77.316)" fill="#1d2026"/></g><g transform="translate(0 -39)"><g transform="translate(-156.688 643.733) rotate(-30)"><path d="M45.591,17.1a9.5,9.5,0,1,0-12.169,9.118A7.306,7.306,0,0,1,32.115,30.6c-1.828,2.28-5.853,2.659-10.115,3.051-3.348.309-6.815.641-9.652,2.006v-17.1a9.5,9.5,0,1,0-5.7,0V42.219a9.519,9.519,0,1,0,6.269.214,4.178,4.178,0,0,1,1.769-1.591c1.923-.974,4.8-1.235,7.848-1.52,5.01-.463,10.685-1,14.033-5.153a12.783,12.783,0,0,0,2.564-8.061A9.537,9.537,0,0,0,45.591,17.1ZM9.5,7.6A1.9,1.9,0,1,1,7.6,9.5,1.905,1.905,0,0,1,9.5,7.6Zm0,45.591a1.9,1.9,0,1,1,1.9-1.9A1.905,1.905,0,0,1,9.5,53.189ZM36.093,15.2a1.9,1.9,0,1,1-1.9,1.9A1.905,1.905,0,0,1,36.093,15.2Z" transform="translate(1004 120)" fill="#1d2026"/><ellipse cx="3.441" cy="3.211" rx="3.441" ry="3.211" transform="translate(1009.046 126.882)" fill="#1d2026"/><circle cx="3.441" cy="3.441" r="3.441" transform="translate(1036.114 133.304)" fill="#1d2026"/><ellipse cx="3.441" cy="3.211" rx="3.441" ry="3.211" transform="translate(1009.046 169.089)" fill="#1d2026"/></g><g transform="translate(363.338 -408.576) rotate(25)"><path d="M97.042,36.391A20.217,20.217,0,1,0,71.139,55.8c-.152,4.069-1.061,7.2-2.78,9.325-3.892,4.852-12.459,5.661-21.531,6.495-7.127.657-14.506,1.365-20.546,4.271V39.5a20.217,20.217,0,1,0-12.13,0V89.865A20.262,20.262,0,1,0,27.5,90.32a8.894,8.894,0,0,1,3.765-3.386c4.094-2.072,10.21-2.628,16.7-3.235,10.664-.986,22.744-2.123,29.871-10.968,3.538-4.4,5.332-10.058,5.459-17.159A20.3,20.3,0,0,0,97.042,36.391ZM20.217,16.174a4.043,4.043,0,1,1-4.043,4.043A4.055,4.055,0,0,1,20.217,16.174Zm0,97.042a4.043,4.043,0,1,1,4.043-4.043A4.055,4.055,0,0,1,20.217,113.215ZM76.825,32.347a4.043,4.043,0,1,1-4.043,4.043A4.055,4.055,0,0,1,76.825,32.347Z" transform="translate(1004 120)" fill="#1d2026"/><ellipse cx="7.324" cy="6.836" rx="7.324" ry="6.836" transform="translate(1014.742 134.648)" fill="#1d2026"/><circle cx="7.324" cy="7.324" r="7.324" transform="translate(1072.357 148.319)" fill="#1d2026"/><ellipse cx="7.324" cy="6.836" rx="7.324" ry="6.836" transform="translate(1014.742 224.488)" fill="#1d2026"/></g><g transform="translate(1040.45 509.768) rotate(-155)"><path d="M71.806,26.927A14.96,14.96,0,1,0,52.639,41.289c-.112,3.011-.785,5.329-2.057,6.9-2.88,3.59-9.219,4.189-15.932,4.806-5.273.486-10.734,1.01-15.2,3.16V29.227a14.96,14.96,0,1,0-8.976,0V66.5a14.993,14.993,0,1,0,9.873.337,6.581,6.581,0,0,1,2.786-2.506c3.029-1.533,7.555-1.945,12.36-2.394,7.891-.729,16.83-1.571,22.1-8.116,2.618-3.254,3.946-7.442,4.039-12.7A15.021,15.021,0,0,0,71.806,26.927ZM14.96,11.968a2.992,2.992,0,1,1-2.992,2.992A3,3,0,0,1,14.96,11.968Zm0,71.806a2.992,2.992,0,1,1,2.992-2.992A3,3,0,0,1,14.96,83.774ZM56.847,23.935a2.992,2.992,0,1,1-2.992,2.992A3,3,0,0,1,56.847,23.935Z" transform="translate(0 0)" fill="#1d2026"/><ellipse cx="5.419" cy="5.058" rx="5.419" ry="5.058" transform="translate(7.948 10.839)" fill="#1d2026"/><ellipse cx="5.419" cy="5.419" rx="5.419" ry="5.419" transform="translate(50.581 20.955)" fill="#1d2026"/><ellipse cx="5.419" cy="5.058" rx="5.419" ry="5.058" transform="translate(7.948 77.316)" fill="#1d2026"/></g><g transform="translate(18.023 -295.497) rotate(39)"><path d="M99.375,37.266A20.7,20.7,0,1,0,72.849,57.141c-.155,4.167-1.087,7.375-2.847,9.549-3.985,4.969-12.758,5.8-22.049,6.651-7.3.673-14.854,1.4-21.04,4.374V40.449a20.7,20.7,0,1,0-12.422,0V92.025a20.75,20.75,0,1,0,13.664.466,9.108,9.108,0,0,1,3.856-3.468C36.2,86.9,42.467,86.332,49.118,85.711,60.039,84.7,72.409,83.537,79.707,74.479c3.623-4.5,5.46-10.3,5.59-17.572A20.788,20.788,0,0,0,99.375,37.266ZM20.7,16.562A4.141,4.141,0,1,1,16.563,20.7,4.153,4.153,0,0,1,20.7,16.562Zm0,99.375a4.141,4.141,0,1,1,4.141-4.141A4.153,4.153,0,0,1,20.7,115.937ZM78.672,33.125a4.141,4.141,0,1,1-4.141,4.141A4.153,4.153,0,0,1,78.672,33.125Z" transform="translate(1004 120)" fill="#1d2026"/><ellipse cx="7.5" cy="7" rx="7.5" ry="7" transform="translate(1015 135)" fill="#1d2026"/><circle cx="7.5" cy="7.5" r="7.5" transform="translate(1074 149)" fill="#1d2026"/><ellipse cx="7.5" cy="7" rx="7.5" ry="7" transform="translate(1015 227)" fill="#1d2026"/></g><g transform="translate(197.534 471.29)"><path d="M36.568,13.713a7.618,7.618,0,1,0-9.761,7.314,5.86,5.86,0,0,1-1.048,3.514c-1.467,1.828-4.695,2.133-8.113,2.447C14.96,27.235,12.18,27.5,9.9,28.6V14.884a7.618,7.618,0,1,0-4.571,0V33.863a7.635,7.635,0,1,0,5.028.171,3.352,3.352,0,0,1,1.419-1.276c1.543-.781,3.847-.99,6.295-1.219,4.019-.371,8.571-.8,11.256-4.133a10.253,10.253,0,0,0,2.057-6.466A7.649,7.649,0,0,0,36.568,13.713ZM7.618,6.095A1.524,1.524,0,1,1,6.095,7.618,1.528,1.528,0,0,1,7.618,6.095Zm0,36.568a1.524,1.524,0,1,1,1.524-1.524A1.528,1.528,0,0,1,7.618,42.662ZM28.949,12.189a1.524,1.524,0,1,1-1.524,1.524A1.528,1.528,0,0,1,28.949,12.189Z" transform="translate(1004 120)" fill="#1d2026"/><ellipse cx="2.76" cy="2.576" rx="2.76" ry="2.576" transform="translate(1008.048 125.52)" fill="#1d2026"/><circle cx="2.76" cy="2.76" r="2.76" transform="translate(1029.758 130.671)" fill="#1d2026"/><ellipse cx="2.76" cy="2.576" rx="2.76" ry="2.576" transform="translate(1008.048 159.374)" fill="#1d2026"/></g><g transform="translate(782.331 -50.534) rotate(25)"><path d="M97.042,36.391A20.217,20.217,0,1,0,71.139,55.8c-.152,4.069-1.061,7.2-2.78,9.325-3.892,4.852-12.459,5.661-21.531,6.495-7.127.657-14.506,1.365-20.546,4.271V39.5a20.217,20.217,0,1,0-12.13,0V89.865A20.262,20.262,0,1,0,27.5,90.32a8.894,8.894,0,0,1,3.765-3.386c4.094-2.072,10.21-2.628,16.7-3.235,10.664-.986,22.744-2.123,29.871-10.968,3.538-4.4,5.332-10.058,5.459-17.159A20.3,20.3,0,0,0,97.042,36.391ZM20.217,16.174a4.043,4.043,0,1,1-4.043,4.043A4.055,4.055,0,0,1,20.217,16.174Zm0,97.042a4.043,4.043,0,1,1,4.043-4.043A4.055,4.055,0,0,1,20.217,113.215ZM76.825,32.347a4.043,4.043,0,1,1-4.043,4.043A4.055,4.055,0,0,1,76.825,32.347Z" transform="translate(1004 120)" fill="#1d2026"/><ellipse cx="7.324" cy="6.836" rx="7.324" ry="6.836" transform="translate(1014.742 134.648)" fill="#1d2026"/><circle cx="7.324" cy="7.324" r="7.324" transform="translate(1072.357 148.319)" fill="#1d2026"/><ellipse cx="7.324" cy="6.836" rx="7.324" ry="6.836" transform="translate(1014.742 224.488)" fill="#1d2026"/></g><g transform="translate(1880.705 287.556) rotate(-180)"><path d="M97.042,93a20.217,20.217,0,1,1-25.9-19.408c-.152-4.069-1.061-7.2-2.78-9.325C64.467,59.413,55.9,58.6,46.828,57.77,39.7,57.113,32.322,56.406,26.282,53.5V89.89a20.217,20.217,0,1,1-12.13,0V39.524A20.262,20.262,0,1,1,27.5,39.069a8.894,8.894,0,0,0,3.765,3.386c4.094,2.072,10.21,2.628,16.7,3.235,10.664.986,22.744,2.123,29.871,10.968,3.538,4.4,5.332,10.058,5.459,17.159A20.3,20.3,0,0,1,97.042,93ZM20.217,113.216a4.043,4.043,0,1,0-4.043-4.043A4.055,4.055,0,0,0,20.217,113.216Zm0-97.042a4.043,4.043,0,1,0,4.043,4.043A4.055,4.055,0,0,0,20.217,16.174ZM76.825,97.042A4.043,4.043,0,1,0,72.781,93,4.055,4.055,0,0,0,76.825,97.042Z" transform="translate(0 0)" fill="#1d2026"/><ellipse cx="7.324" cy="6.836" rx="7.324" ry="6.836" transform="translate(10.742 101.07)" fill="#1d2026"/><ellipse cx="7.324" cy="7.324" rx="7.324" ry="7.324" transform="translate(68.357 86.422)" fill="#1d2026"/><ellipse cx="7.324" cy="6.836" rx="7.324" ry="6.836" transform="translate(10.742 11.23)" fill="#1d2026"/></g><g transform="translate(877.5 786.798) rotate(155)"><path d="M97.042,93a20.217,20.217,0,1,1-25.9-19.408c-.152-4.069-1.061-7.2-2.78-9.325C64.467,59.413,55.9,58.6,46.828,57.77,39.7,57.113,32.322,56.406,26.282,53.5V89.89a20.217,20.217,0,1,1-12.13,0V39.524A20.262,20.262,0,1,1,27.5,39.069a8.894,8.894,0,0,0,3.765,3.386c4.094,2.072,10.21,2.628,16.7,3.235,10.664.986,22.744,2.123,29.871,10.968,3.538,4.4,5.332,10.058,5.459,17.159A20.3,20.3,0,0,1,97.042,93ZM20.217,113.215a4.043,4.043,0,1,0-4.043-4.043A4.055,4.055,0,0,0,20.217,113.215Zm0-97.042a4.043,4.043,0,1,0,4.043,4.043A4.055,4.055,0,0,0,20.217,16.174ZM76.825,97.042A4.043,4.043,0,1,0,72.781,93,4.055,4.055,0,0,0,76.825,97.042Z" transform="translate(0 0)" fill="#1d2026"/><ellipse cx="7.324" cy="6.836" rx="7.324" ry="6.836" transform="translate(10.742 101.07)" fill="#1d2026"/><ellipse cx="7.324" cy="7.324" rx="7.324" ry="7.324" transform="translate(68.357 86.422)" fill="#1d2026"/><ellipse cx="7.324" cy="6.836" rx="7.324" ry="6.836" transform="translate(10.742 11.23)" fill="#1d2026"/></g><g transform="translate(1459.443 867.81) rotate(-155)"><path d="M71.806,26.927A14.96,14.96,0,1,0,52.639,41.289c-.112,3.011-.785,5.329-2.057,6.9-2.88,3.59-9.219,4.189-15.932,4.806-5.273.486-10.734,1.01-15.2,3.16V29.227a14.96,14.96,0,1,0-8.976,0V66.5a14.993,14.993,0,1,0,9.873.337,6.581,6.581,0,0,1,2.786-2.506c3.029-1.533,7.555-1.945,12.36-2.394,7.891-.729,16.83-1.571,22.1-8.116,2.618-3.254,3.946-7.442,4.039-12.7A15.021,15.021,0,0,0,71.806,26.927ZM14.96,11.968a2.992,2.992,0,1,1-2.992,2.992A3,3,0,0,1,14.96,11.968Zm0,71.806a2.992,2.992,0,1,1,2.992-2.992A3,3,0,0,1,14.96,83.774ZM56.847,23.935a2.992,2.992,0,1,1-2.992,2.992A3,3,0,0,1,56.847,23.935Z" transform="translate(0 0)" fill="#1d2026"/><ellipse cx="5.419" cy="5.058" rx="5.419" ry="5.058" transform="translate(7.948 10.839)" fill="#1d2026"/><ellipse cx="5.419" cy="5.419" rx="5.419" ry="5.419" transform="translate(50.581 20.955)" fill="#1d2026"/><ellipse cx="5.419" cy="5.058" rx="5.419" ry="5.058" transform="translate(7.948 77.316)" fill="#1d2026"/></g><g transform="translate(1144.375 791.879) rotate(25)"><path d="M81.09,30.409A16.894,16.894,0,1,0,59.445,46.627c-.127,3.4-.887,6.018-2.323,7.792-3.252,4.055-10.411,4.73-17.992,5.427-5.955.549-12.121,1.14-17.168,3.569V33.006a16.894,16.894,0,1,0-10.136,0V75.093a16.932,16.932,0,1,0,11.15.38,7.432,7.432,0,0,1,3.146-2.83c3.421-1.732,8.531-2.2,13.958-2.7,8.911-.824,19.006-1.774,24.961-9.165C68,57.1,69.5,52.371,69.6,46.437A16.963,16.963,0,0,0,81.09,30.409Zm-64.2-16.894a3.379,3.379,0,1,1-3.379,3.379A3.389,3.389,0,0,1,16.894,13.515Zm0,81.09a3.379,3.379,0,1,1,3.379-3.379A3.389,3.389,0,0,1,16.894,94.605ZM64.2,27.03a3.379,3.379,0,1,1-3.379,3.379A3.389,3.389,0,0,1,64.2,27.03Z" transform="translate(0 0)" fill="#1d2026"/><ellipse cx="6.12" cy="5.712" rx="6.12" ry="5.712" transform="translate(8.976 12.24)" fill="#1d2026"/><ellipse cx="6.12" cy="6.12" rx="6.12" ry="6.12" transform="translate(57.12 23.664)" fill="#1d2026"/><ellipse cx="6.12" cy="5.712" rx="6.12" ry="5.712" transform="translate(8.976 87.312)" fill="#1d2026"/></g><g transform="translate(-400.971 -653.539) rotate(39)"><path d="M99.375,37.266A20.7,20.7,0,1,0,72.849,57.141c-.155,4.167-1.087,7.375-2.847,9.549-3.985,4.969-12.758,5.8-22.049,6.651-7.3.673-14.854,1.4-21.04,4.374V40.449a20.7,20.7,0,1,0-12.422,0V92.025a20.75,20.75,0,1,0,13.664.466,9.108,9.108,0,0,1,3.856-3.468C36.2,86.9,42.467,86.332,49.118,85.711,60.039,84.7,72.409,83.537,79.707,74.479c3.623-4.5,5.46-10.3,5.59-17.572A20.788,20.788,0,0,0,99.375,37.266ZM20.7,16.562A4.141,4.141,0,1,1,16.563,20.7,4.153,4.153,0,0,1,20.7,16.562Zm0,99.375a4.141,4.141,0,1,1,4.141-4.141A4.153,4.153,0,0,1,20.7,115.937ZM78.672,33.125a4.141,4.141,0,1,1-4.141,4.141A4.153,4.153,0,0,1,78.672,33.125Z" transform="translate(1004 120)" fill="#1d2026"/><ellipse cx="7.5" cy="7" rx="7.5" ry="7" transform="translate(1015 135)" fill="#1d2026"/><circle cx="7.5" cy="7.5" r="7.5" transform="translate(1074 149)" fill="#1d2026"/><ellipse cx="7.5" cy="7" rx="7.5" ry="7" transform="translate(1015 227)" fill="#1d2026"/></g><g transform="translate(458.507 428.756) rotate(155)"><path d="M97.042,93a20.217,20.217,0,1,1-25.9-19.408c-.152-4.069-1.061-7.2-2.78-9.325C64.467,59.413,55.9,58.6,46.828,57.77,39.7,57.113,32.322,56.406,26.282,53.5V89.89a20.217,20.217,0,1,1-12.13,0V39.524A20.262,20.262,0,1,1,27.5,39.069a8.894,8.894,0,0,0,3.765,3.386c4.094,2.072,10.21,2.628,16.7,3.235,10.664.986,22.744,2.123,29.871,10.968,3.538,4.4,5.332,10.058,5.459,17.159A20.3,20.3,0,0,1,97.042,93ZM20.217,113.215a4.043,4.043,0,1,0-4.043-4.043A4.055,4.055,0,0,0,20.217,113.215Zm0-97.042a4.043,4.043,0,1,0,4.043,4.043A4.055,4.055,0,0,0,20.217,16.174ZM76.825,97.042A4.043,4.043,0,1,0,72.781,93,4.055,4.055,0,0,0,76.825,97.042Z" transform="translate(0 0)" fill="#1d2026"/><ellipse cx="7.324" cy="6.836" rx="7.324" ry="6.836" transform="translate(10.742 101.07)" fill="#1d2026"/><ellipse cx="7.324" cy="7.324" rx="7.324" ry="7.324" transform="translate(68.357 86.422)" fill="#1d2026"/><ellipse cx="7.324" cy="6.836" rx="7.324" ry="6.836" transform="translate(10.742 11.23)" fill="#1d2026"/></g><g transform="translate(603.305 1112.112) rotate(-90)"><path d="M62.654,23.5A13.053,13.053,0,1,0,45.93,36.026a10.041,10.041,0,0,1-1.795,6.021c-2.513,3.133-8.044,3.655-13.9,4.193-4.6.424-9.366.881-13.265,2.757V25.5a13.053,13.053,0,1,0-7.832,0V58.021a13.082,13.082,0,1,0,8.615.294,5.742,5.742,0,0,1,2.431-2.186c2.643-1.338,6.592-1.7,10.785-2.088,6.885-.636,14.685-1.371,19.286-7.081,2.284-2.839,3.443-6.494,3.524-11.079A13.106,13.106,0,0,0,62.654,23.5Zm-49.6-13.053a2.611,2.611,0,1,1-2.611,2.611A2.618,2.618,0,0,1,13.053,10.442Zm0,62.654a2.611,2.611,0,1,1,2.611-2.611A2.618,2.618,0,0,1,13.053,73.1ZM49.6,20.885A2.611,2.611,0,1,1,46.991,23.5,2.618,2.618,0,0,1,49.6,20.885Z" transform="translate(1004 120)" fill="#1d2026"/><ellipse cx="4.729" cy="4.413" rx="4.729" ry="4.413" transform="translate(1010.935 129.457)" fill="#1d2026"/><circle cx="4.729" cy="4.729" r="4.729" transform="translate(1048.134 138.284)" fill="#1d2026"/><ellipse cx="4.729" cy="4.413" rx="4.729" ry="4.413" transform="translate(1010.935 187.462)" fill="#1d2026"/></g><g transform="translate(-732.327 1138.275) rotate(-30)"><path d="M36.568,13.713a7.618,7.618,0,1,0-9.761,7.314,5.86,5.86,0,0,1-1.048,3.514c-1.467,1.828-4.695,2.133-8.113,2.447C14.96,27.235,12.18,27.5,9.9,28.6V14.884a7.618,7.618,0,1,0-4.571,0V33.863a7.635,7.635,0,1,0,5.028.171,3.352,3.352,0,0,1,1.419-1.276c1.543-.781,3.847-.99,6.295-1.219,4.019-.371,8.571-.8,11.256-4.133a10.253,10.253,0,0,0,2.057-6.466A7.649,7.649,0,0,0,36.568,13.713ZM7.618,6.095A1.524,1.524,0,1,1,6.095,7.618,1.528,1.528,0,0,1,7.618,6.095Zm0,36.568a1.524,1.524,0,1,1,1.524-1.524A1.528,1.528,0,0,1,7.618,42.662ZM28.949,12.189a1.524,1.524,0,1,1-1.524,1.524A1.528,1.528,0,0,1,28.949,12.189Z" transform="translate(1004 120)" fill="#1d2026"/><ellipse cx="2.76" cy="2.576" rx="2.76" ry="2.576" transform="translate(1008.048 125.52)" fill="#1d2026"/><circle cx="2.76" cy="2.76" r="2.76" transform="translate(1029.758 130.671)" fill="#1d2026"/><ellipse cx="2.76" cy="2.576" rx="2.76" ry="2.576" transform="translate(1008.048 159.374)" fill="#1d2026"/></g><g transform="translate(27.667 1606.654) rotate(-90)"><path d="M62.654,23.5A13.053,13.053,0,1,0,45.93,36.026a10.041,10.041,0,0,1-1.795,6.021c-2.513,3.133-8.044,3.655-13.9,4.193-4.6.424-9.366.881-13.265,2.757V25.5a13.053,13.053,0,1,0-7.832,0V58.021a13.082,13.082,0,1,0,8.615.294,5.742,5.742,0,0,1,2.431-2.186c2.643-1.338,6.592-1.7,10.785-2.088,6.885-.636,14.685-1.371,19.286-7.081,2.284-2.839,3.443-6.494,3.524-11.079A13.106,13.106,0,0,0,62.654,23.5Zm-49.6-13.053a2.611,2.611,0,1,1-2.611,2.611A2.618,2.618,0,0,1,13.053,10.442Zm0,62.654a2.611,2.611,0,1,1,2.611-2.611A2.618,2.618,0,0,1,13.053,73.1ZM49.6,20.885A2.611,2.611,0,1,1,46.991,23.5,2.618,2.618,0,0,1,49.6,20.885Z" transform="translate(1004 120)" fill="#1d2026"/><ellipse cx="4.729" cy="4.413" rx="4.729" ry="4.413" transform="translate(1010.935 129.457)" fill="#1d2026"/><circle cx="4.729" cy="4.729" r="4.729" transform="translate(1048.134 138.284)" fill="#1d2026"/><ellipse cx="4.729" cy="4.413" rx="4.729" ry="4.413" transform="translate(1010.935 187.462)" fill="#1d2026"/></g><g transform="translate(-536.717 219.488) rotate(39)"><path d="M81.306,30.49A16.939,16.939,0,1,0,59.6,46.751c-.127,3.409-.889,6.034-2.329,7.813-3.261,4.065-10.439,4.743-18.04,5.442-5.971.551-12.154,1.143-17.214,3.578V33.094a16.939,16.939,0,1,0-10.163,0v42.2a16.977,16.977,0,1,0,11.18.381,7.452,7.452,0,0,1,3.155-2.837c3.43-1.736,8.554-2.2,14-2.71,8.935-.826,19.056-1.779,25.027-9.189,2.964-3.684,4.468-8.427,4.573-14.377A17.008,17.008,0,0,0,81.306,30.49ZM16.939,13.551a3.388,3.388,0,1,1-3.388,3.388A3.4,3.4,0,0,1,16.939,13.551Zm0,81.306a3.388,3.388,0,1,1,3.388-3.388A3.4,3.4,0,0,1,16.939,94.857ZM64.368,27.1A3.388,3.388,0,1,1,60.98,30.49,3.4,3.4,0,0,1,64.368,27.1Z" transform="translate(1004 120)" fill="#1d2026"/><ellipse cx="6.136" cy="5.727" rx="6.136" ry="5.727" transform="translate(1013 132.273)" fill="#1d2026"/><circle cx="6.136" cy="6.136" r="6.136" transform="translate(1061.272 143.727)" fill="#1d2026"/><ellipse cx="6.136" cy="5.727" rx="6.136" ry="5.727" transform="translate(1013 207.545)" fill="#1d2026"/></g></g></g></svg>